<?xml version="1.0" encoding="UTF-8"?>
<svg width="86px" height="66px" viewBox="0 0 86 66" version="1.1" xmlns="http://www.w3.org/2000/svg" xmlns:xlink="http://www.w3.org/1999/xlink">
    <title>编组 5备份</title>
    <defs>
        <linearGradient x1="0%" y1="100%" x2="101.797426%" y2="100%" id="linearGradient-1">
            <stop stop-color="#53E9F6" stop-opacity="0" offset="0%"></stop>
            <stop stop-color="#379AEE" stop-opacity="0.206676136" offset="28.3314834%"></stop>
            <stop stop-color="#4D65DB" stop-opacity="0.505190122" offset="56.2964379%"></stop>
            <stop stop-color="#622EC3" offset="100%"></stop>
        </linearGradient>
    </defs>
    <g id="Noelle-UI-Kit-(Dark)" stroke="none" stroke-width="1" fill="none" fill-rule="evenodd">
        <g id="OBP-默认" transform="translate(-917.000000, -953.000000)">
            <g id="编组-4备份-3" transform="translate(368.000000, 694.000000)">
                <g id="编组-5" transform="translate(549.000000, 155.000000)">
                    <g id="编组-5备份" transform="translate(42.779373, 137.057130) scale(-1, 1) translate(-42.779373, -137.057130) translate(0.000000, 104.704753)">
                        <path d="M56.429551,0.935327433 C58.1221746,-0.484292376 60.6451464,-0.262979061 62.0647662,1.42964456 L62.0647662,1.42964456 L83.688279,27.2115253 C86.1822359,30.1850892 86.1822359,34.5197575 83.688279,37.4933214 L83.688279,37.4933214 L62.0647662,63.2752021 C61.304754,64.1813705 60.1826917,64.7047531 59,64.7047531 C56.790861,64.7047531 55,62.9138921 55,60.7047531 L55,60.7047531 L54.999,48.852 L0,48.8524234 L0,16.8524234 L54.999,16.852 L55,4.00009361 C55,2.89624801 55.4559244,1.84521739 56.2534627,1.0920679 Z" id="形状结合" fill="url(#linearGradient-1)"></path>
                        <rect id="矩形" fill="#FFFFFF" x="55" y="29.8524234" width="20" height="4" rx="2"></rect>
                    </g>
                </g>
            </g>
        </g>
    </g>
</svg>