<?xml version="1.0" encoding="UTF-8"?>
<svg width="24px" height="24px" viewBox="0 0 24 24" version="1.1" xmlns="http://www.w3.org/2000/svg" xmlns:xlink="http://www.w3.org/1999/xlink">
    <title>切片</title>
    <g id="Noelle-UI-Kit-(Dark)" stroke="none" stroke-width="1">
        <g id="03-Build-Image_下拉" transform="translate(-1194.000000, -626.000000)">
            <g id="编组" transform="translate(644.000000, 384.000000)">
                <g id="编组-5" transform="translate(530.000000, 158.000000)">
                    <g id="按钮/文字+边框+进入icon备份" transform="translate(0.000000, 72.000000)">
                        <g id="ico-/-24-/-arrows-/-arrow_forward" transform="translate(32.000000, 24.000000) scale(-1, 1) translate(-32.000000, -24.000000) translate(20.000000, 12.000000)">
                            <path d="M2,12.5 L2,11.5 C2,11.2238576 2.22385763,11 2.5,11 L18.67,11 L14.22,6.56 C14.1253437,6.4661167 14.0721008,6.33831877 14.0721008,6.205 C14.0721008,6.07168123 14.1253437,5.9438833 14.22,5.85 L14.93,5.15 C15.0238833,5.05534367 15.1516812,5.00210084 15.285,5.00210084 C15.4183188,5.00210084 15.5461167,5.05534367 15.64,5.15 L21.78,11.28 C21.9206925,11.4205174 22,11.6111546 22,11.81 L22,12.19 C21.997696,12.3884141 21.918884,12.5782794 21.78,12.72 L15.64,18.85 C15.5461167,18.9446563 15.4183188,18.9978992 15.285,18.9978992 C15.1516812,18.9978992 15.0238833,18.9446563 14.93,18.85 L14.22,18.14 C14.1259359,18.0478364 14.0729286,17.9216897 14.0729286,17.79 C14.0729286,17.6583103 14.1259359,17.5321636 14.22,17.44 L18.67,13 L2.5,13 C2.22385763,13 2,12.7761424 2,12.5 Z" id="Icon-color"></path>
                        </g>
                    </g>
                </g>
            </g>
        </g>
    </g>
</svg>