<?xml version="1.0" encoding="UTF-8"?>
<svg width="17px" height="16px" viewBox="0 0 17 16" version="1.1" xmlns="http://www.w3.org/2000/svg" xmlns:xlink="http://www.w3.org/1999/xlink">
    <title>切片</title>
    <g id="Noelle-UI-Kit-(Dark)" stroke="none" stroke-width="1" fill="none" fill-rule="evenodd">
        <g id="04-Job-List_筛选" transform="translate(-579.000000, -264.000000)" fill="#002FA7" fill-rule="nonzero">
            <g id="编组-22" transform="translate(276.000000, 248.000000)">
                <g id="编组-11" transform="translate(261.200000, 13.000000)">
                    <g id="ico-/-24-/-arrows-/-arrow_drop_down_circle_outlined" transform="translate(42.000000, 3.000000)">
                        <path d="M8,2.66666667 C10.9455187,2.66666667 13.3333333,5.05448133 13.3333333,8 C13.3333333,10.9455187 10.9455187,13.3333333 8,13.3333333 C5.05448133,13.3333333 2.66666667,10.9455187 2.66666667,8 C2.66666667,5.05448133 5.05448133,2.66666667 8,2.66666667 L8,2.66666667 Z M8,1.33333333 C4.31810167,1.33333333 1.33333333,4.31810167 1.33333333,8 C1.33333333,11.6818983 4.31810167,14.6666667 8,14.6666667 C11.6818983,14.6666667 14.6666667,11.6818983 14.6666667,8 C14.6666667,6.23189007 13.9642877,4.53619732 12.7140452,3.28595479 C11.4638027,2.03571227 9.76810993,1.33333333 8,1.33333333 Z M10,6.66666088 L6,6.66666088 C5.86543042,6.66587618 5.7435849,6.74608027 5.69110275,6.86999646 C5.63862061,6.99391265 5.66579735,7.13723205 5.76,7.23333333 L7.76,9.23333333 C7.89187578,9.36118886 8.10145755,9.36118886 8.23333333,9.23333333 L10.2333333,7.23333333 C10.3267066,7.1380999 10.3543252,6.99637626 10.303544,6.87305051 C10.2527628,6.74972477 10.1333584,6.66854002 10,6.66666088 L10,6.66666088 Z" id="Icon-color"></path>
                    </g>
                </g>
            </g>
        </g>
    </g>
</svg>