<?xml version="1.0" encoding="UTF-8"?>
<svg width="17px" height="16px" viewBox="0 0 17 16" version="1.1" xmlns="http://www.w3.org/2000/svg" xmlns:xlink="http://www.w3.org/1999/xlink">
    <title>切片</title>
    <g id="Noelle-UI-Kit-(Dark)" stroke="none" stroke-width="1" fill="none" fill-rule="evenodd">
        <g id="04-Job-List_筛选" transform="translate(-1624.000000, -372.000000)" fill="#002FA7" fill-rule="nonzero">
            <g id="编组-22" transform="translate(276.000000, 248.000000)">
                <g id="Group-21" transform="translate(0.000000, 12.000000)">
                    <g id="编组-20" transform="translate(1291.400000, 1.000000)">
                        <g id="1.通用/2.Icon图标/Line/Question-Circle-Line" transform="translate(57.000000, 111.000000)">
                            <path d="M8,1.33333333 C4.31810167,1.33333333 1.33333333,4.31810167 1.33333333,8 C1.33333333,11.6818983 4.31810167,14.6666667 8,14.6666667 C11.6818983,14.6666667 14.6666667,11.6818983 14.6666667,8 C14.6666667,6.23189007 13.9642877,4.53619732 12.7140452,3.28595479 C11.4638027,2.03571227 9.76810993,1.33333333 8,1.33333333 Z M8,13.3333333 C5.05448133,13.3333333 2.66666667,10.9455187 2.66666667,8 C2.66666667,5.05448133 5.05448133,2.66666667 8,2.66666667 C10.9455187,2.66666667 13.3333333,5.05448133 13.3333333,8 C13.3333333,9.41448795 12.7714302,10.7710421 11.7712362,11.7712362 C10.7710421,12.7714302 9.41448795,13.3333333 8,13.3333333 Z M8.33333333,10.6666667 L7.66666667,10.6666667 C7.48257175,10.6666667 7.33333333,10.8159051 7.33333333,11 L7.33333333,11.6666667 C7.33333333,11.8507616 7.48257175,12 7.66666667,12 L8.33333333,12 C8.51742825,12 8.66666667,11.8507616 8.66666667,11.6666667 L8.66666667,11 C8.66666667,10.8159051 8.51742825,10.6666667 8.33333333,10.6666667 Z M10.5866667,6 C10.5866667,4.93961328 9.72705339,4.08 8.66666667,4.08 L7.33333333,4.08 C6.27294661,4.08 5.41333333,4.93961328 5.41333333,6 L5.41333333,6.33333333 C5.41333333,6.51742825 5.56257175,6.66666667 5.74666667,6.66666667 L6.25333333,6.66666667 C6.43742825,6.66666667 6.58666667,6.51742825 6.58666667,6.33333333 L6.58666667,6 C6.58666667,5.80197169 6.66533311,5.6120541 6.80536027,5.47202694 C6.94538743,5.33199977 7.13530502,5.25333333 7.33333333,5.25333333 L8.66666667,5.25333333 C9.07903928,5.25333333 9.41333333,5.58762739 9.41333333,6 L9.41333333,6.37333333 C9.41398534,6.69487346 9.21048249,6.98138406 8.90666667,7.08666667 L8.27333333,7.29333333 C7.76117648,7.46261354 7.41477459,7.94059444 7.41333333,8.48 L7.41333333,9 C7.41333333,9.18409492 7.56257175,9.33333333 7.74666667,9.33333333 L8.25333333,9.33333333 C8.43742825,9.33333333 8.58666667,9.18409492 8.58666667,9 L8.58666667,8.48 C8.5898495,8.43720483 8.6238715,8.40318283 8.66666667,8.4 L9.3,8.19333333 C10.0903191,7.93753608 10.6277092,7.20399865 10.6333333,6.37333333 L10.5866667,6 Z" id="Icon-color"></path>
                        </g>
                    </g>
                </g>
            </g>
        </g>
    </g>
</svg>