<?xml version="1.0" encoding="UTF-8"?>
<svg width="316px" height="60px" viewBox="0 0 316 60" version="1.1" xmlns="http://www.w3.org/2000/svg" xmlns:xlink="http://www.w3.org/1999/xlink">
    <title>OBP/logo</title>
    <g id="OBP/logo" stroke="none" stroke-width="1" fill="none" fill-rule="evenodd">
        <g id="编组">
            <polygon id="Fill-1" fill="#002FA7" points="39.9931298 48.5520338 39.9931298 40.9442526 33.3276069 37.1403241 26.662084 40.9442526 26.662084 48.5520338 33.3276069 52.3558863"></polygon>
            <polygon id="Fill-2" fill="#002FA7" points="26.6620764 40.983649 26.6620764 48.552049 33.3275993 52.3559015 33.3275993 44.7875015"></polygon>
            <polygon id="Fill-3" fill="#0D8DFF" points="26.6620764 41.0229997 33.3275993 44.8268523 39.9931222 41.0229997 39.9931222 40.9442374 33.3275993 37.1403849 26.6620764 40.9442374"></polygon>
            <polygon id="Fill-4" fill="#0D5FFF" points="28.7771246 32.0728693 28.7771246 24.4651642 22.1116017 20.6612356 15.4460788 24.4651642 15.4460788 32.0728693 22.1116017 35.8767979"></polygon>
            <polygon id="Fill-5" fill="#002FA7" points="15.4461092 24.5044845 15.4461092 32.0728845 22.1116321 35.8767371 22.1116321 28.3084131"></polygon>
            <polygon id="Fill-6" fill="#0D8DFF" points="15.4461092 24.5439036 22.1116321 28.3477562 28.777155 24.5439036 28.777155 24.4651414 22.1116321 20.6612888 15.4461092 24.4651414"></polygon>
            <polygon id="Fill-7" fill="#0D5FFF" points="28.7771246 27.0534854 28.7771246 19.4457802 22.1116017 15.6418517 15.4460788 19.4457802 15.4460788 27.0534854 22.1116017 30.8573379"></polygon>
            <polygon id="Fill-8" fill="#002FA7" points="15.4461092 19.4851082 15.4461092 27.0535082 22.1116321 30.8573607 22.1116321 23.2889607"></polygon>
            <polygon id="Fill-9" fill="#0D8DFF" points="15.4461092 19.5245273 22.1116321 23.3283799 28.777155 19.5245273 28.777155 19.445765 22.1116321 15.6419125 15.4461092 19.445765"></polygon>
            <polygon id="Fill-10" fill="#0D5FFF" points="35.4426703 38.5045078 35.4426703 30.8968027 28.7771474 27.0927981 22.1116245 30.8968027 22.1116245 38.5045078 28.7771474 42.3083604"></polygon>
            <polygon id="Fill-11" fill="#000000" points="22.1116169 30.936123 22.1116169 38.504523 28.7771398 42.3083756 28.7771398 34.7399756"></polygon>
            <polygon id="Fill-12" fill="#0D8DFF" points="22.1116169 30.9755497 28.7771398 34.7794023 35.4426627 30.9755497 35.4426627 30.8967875 28.7771398 27.0928589 22.1116169 30.8967875"></polygon>
            <polygon id="Fill-13" fill="#0D5FFF" points="28.7771322 34.6612209 28.7771322 42.269002 35.4426551 46.0729306 42.108178 42.269002 42.108178 34.6612209 35.4426551 30.8572923"></polygon>
            <polygon id="Fill-14" fill="#000000" points="28.7771626 34.70064 28.7771626 42.26904 35.4426855 46.0728926 35.4426855 38.5044926"></polygon>
            <polygon id="Fill-15" fill="#0D8DFF" points="28.7771322 34.6612209 28.7771322 34.7399832 35.4426551 38.5439117 42.108178 34.7399832 42.108178 34.6612209 35.4426551 30.8572923"></polygon>
            <polygon id="Fill-16" fill="#FFAB15" points="39.4729416 11.8379459 39.4729416 4.23024076 32.8074187 0.426312172 26.1418957 4.23024076 26.1418957 11.8379459 32.8074187 15.6418745"></polygon>
            <polygon id="Fill-17" fill="#FF6C0A" points="26.1419262 4.26956867 26.1419262 11.8379687 32.8074491 15.6418212 32.8074491 8.07342123"></polygon>
            <polygon id="Fill-18" fill="#FFE151" points="26.1419262 4.30898782 32.8074491 8.11284038 39.472972 4.30898782 39.472972 4.23022555 32.8074491 0.426372993 26.1419262 4.23022555"></polygon>
            <polygon id="Fill-19" fill="#0D5FFF" points="0 40.9912211 0 48.5990022 6.66552291 52.4029308 13.3310458 48.5990022 13.3310458 40.9912211 6.66552291 37.1872925"></polygon>
            <polygon id="Fill-20" fill="#000000" points="0 48.5990174 6.66552291 52.402946 6.66552291 44.834546 0 41.0306174"></polygon>
            <polygon id="Fill-21" fill="#0D8DFF" points="0 40.9912211 0 41.0699834 6.66552291 44.8738359 13.3310458 41.0699834 13.3310458 40.9912211 6.66552291 37.1872925"></polygon>
            <polygon id="Fill-22" fill="#0D5FFF" points="0 33.5249231 0 41.1327043 6.66552291 44.9366329 13.3310458 41.1327043 13.3310458 33.5249231 6.66552291 29.7209946"></polygon>
            <polygon id="Fill-23" fill="#000000" points="0 41.1327195 6.66552291 44.9366481 6.66552291 37.3682481 0 33.5643195"></polygon>
            <polygon id="Fill-24" fill="#0D8DFF" points="0 33.5249231 0 33.6036854 6.66552291 37.407614 13.3310458 33.6036854 13.3310458 33.5249231 6.66552291 29.7209946"></polygon>
            <polygon id="Fill-25" fill="#0D5FFF" points="19.9965687 52.3925762 19.9965687 44.7848711 13.3310458 40.9809425 6.66552291 44.7848711 6.66552291 52.3925762 13.3310458 56.1965048"></polygon>
            <polygon id="Fill-26" fill="#000000" points="6.6655153 44.8241914 6.6655153 52.3925914 13.3310382 56.1964439 13.3310382 48.62812"></polygon>
            <polygon id="Fill-27" fill="#0D8DFF" points="6.6655153 44.8636181 13.3310382 48.6674707 19.9965611 44.8636181 19.9965611 44.7848559 13.3310382 40.9810033 6.6655153 44.7848559"></polygon>
            <polygon id="Fill-28" fill="#002FA7" points="33.3275841 52.3953207 33.3275841 44.7875395 26.6620612 40.983611 19.9965383 44.7875395 19.9965383 52.3953207 26.6620612 56.1991732"></polygon>
            <polygon id="Fill-29" fill="#002FA7" points="19.9965687 44.8269359 19.9965687 52.3952599 26.6620916 56.1991885 26.6620916 48.6307884"></polygon>
            <polygon id="Fill-30" fill="#0D8DFF" points="19.9965687 44.8662866 26.6620916 48.6701392 33.3276145 44.8662866 33.3276145 44.7875243 26.6620916 40.9836718 19.9965687 44.7875243"></polygon>
            <polygon id="Fill-31" fill="#002FA7" points="13.3310914 48.5883435 13.3310914 56.1960486 19.9965383 59.9999772 26.6620612 56.1960486 26.6620612 48.5883435 19.9965383 44.7844149"></polygon>
            <polygon id="Fill-32" fill="#000000" points="13.3310914 56.1960714 19.9965383 60 19.9965383 52.4316 13.3310914 48.6276714"></polygon>
            <polygon id="Fill-33" fill="#0D8DFF" points="13.331061 48.6671134 19.9965839 52.4709659 26.6621068 48.6671134 26.6621068 48.5883511 19.9965839 44.7844985 13.331061 48.5883511"></polygon>
            <polygon id="Fill-34" fill="#0D5FFF" points="19.9965687 33.5249231 19.9965687 25.917218 13.3310458 22.1132894 6.66552291 25.917218 6.66552291 33.5249231 13.3310458 37.3288517"></polygon>
            <polygon id="Fill-35" fill="#000000" points="6.6655153 25.9565383 6.6655153 33.5249383 13.3310382 37.3287909 13.3310382 29.7604669"></polygon>
            <polygon id="Fill-36" fill="#0D8DFF" points="6.6655153 25.9959651 13.3310382 29.7998176 19.9965611 25.9959651 19.9965611 25.9172028 13.3310382 22.1133503 6.6655153 25.9172028"></polygon>
            <polygon id="Fill-37" fill="#0D5FFF" points="0 33.3834932 0 40.9911983 6.66552291 44.7952029 13.3310458 40.9911983 13.3310458 33.3834932 6.66552291 29.5795646"></polygon>
            <polygon id="Fill-38" fill="#000000" points="0 40.9912211 6.66552291 44.7951497 6.66552291 37.2268257 0 33.4228211"></polygon>
            <polygon id="Fill-39" fill="#0D8DFF" points="0 33.3834932 0 33.4622554 6.66552291 37.266184 13.3310458 33.4622554 13.3310458 33.3834932 6.66552291 29.5795646"></polygon>
            <polygon id="Fill-40" fill="#0D5FFF" points="28.7771322 21.9642721 28.7771322 29.5720533 35.4426551 33.3759058 42.108178 29.5720533 42.108178 21.9642721 35.4426551 18.1603436"></polygon>
            <polygon id="Fill-41" fill="#002FA7" points="28.7771626 22.0036685 28.7771626 29.5719925 35.4426855 33.375921 35.4426855 25.807521"></polygon>
            <polygon id="Fill-42" fill="#0D8DFF" points="28.7771322 21.9642721 28.7771322 22.0430344 35.4426551 25.846887 42.108178 22.0430344 42.108178 21.9642721 35.4426551 18.1603436"></polygon>
            <polygon id="Fill-43" fill="#0D5FFF" points="35.4426703 33.3364943 35.4426703 25.7287892 28.7771474 21.9248606 22.1116245 25.7287892 22.1116245 33.3364943 28.7771474 37.1404229"></polygon>
            <polygon id="Fill-44" fill="#002FA7" points="22.1116169 25.7681095 22.1116169 33.3365095 28.7771398 37.1403621 28.7771398 29.5720381"></polygon>
            <polygon id="Fill-45" fill="#0D8DFF" points="22.1116169 25.8075286 28.7771398 29.6113812 35.4426627 25.8075286 35.4426627 25.7287664 28.7771398 21.9249138 22.1116169 25.7287664"></polygon>
            <polygon id="Fill-46" fill="#0D5FFF" points="28.7771626 37.1010113 28.7771626 29.4933062 22.1116397 25.6893016 15.4461168 29.4933062 15.4461168 37.1010113 22.1116397 40.9048639"></polygon>
            <polygon id="Fill-47" fill="#002FA7" points="15.4461092 29.5326265 15.4461092 37.1010265 22.1116321 40.9048791 22.1116321 33.3364791"></polygon>
            <polygon id="Fill-48" fill="#0D8DFF" points="15.4461092 29.5720457 22.1116321 33.3758982 28.777155 29.5720457 28.777155 29.4932834 22.1116321 25.6893548 15.4461092 29.4932834"></polygon>
            <polygon id="Fill-49" fill="#0D5FFF" points="28.7771626 31.4149231 28.7771626 23.8071419 22.1116397 20.0032894 15.4461168 23.8071419 15.4461168 31.4149231 22.1116397 35.2187756"></polygon>
            <polygon id="Fill-50" fill="#002FA7" points="15.4461092 23.8465383 15.4461092 31.4148622 22.1116321 35.2187908 22.1116321 27.6503908"></polygon>
            <polygon id="Fill-51" fill="#0D8DFF" points="15.4461092 23.885889 22.1116321 27.6897415 28.777155 23.885889 28.777155 23.8071267 22.1116321 20.0032742 15.4461092 23.8071267"></polygon>
            <polygon id="Fill-52" fill="#0D5FFF" points="18.778863 18.940607 18.778863 11.3329018 12.1133401 7.52897326 5.44781721 11.3329018 5.44781721 18.940607 12.1133401 22.7444595"></polygon>
            <polygon id="Fill-53" fill="#002FA7" points="5.44780961 11.3722222 5.44780961 18.9406222 12.1133325 22.7444747 12.1133325 15.1760747"></polygon>
            <polygon id="Fill-54" fill="#0D8DFF" points="5.44780961 11.4116413 12.1133325 15.2154939 18.7788554 11.4116413 18.7788554 11.332879 12.1133325 7.52902648 5.44780961 11.332879"></polygon>
            <polygon id="Fill-55" fill="#0D5FFF" points="22.1116169 20.7862213 22.1116169 13.1784401 15.446094 9.37451154 8.78057106 13.1784401 8.78057106 20.7862213 15.446094 24.5900738"></polygon>
            <polygon id="Fill-56" fill="#002FA7" points="8.78060147 13.2178365 8.78060147 20.7861604 15.4461244 24.590089 15.4461244 17.021689"></polygon>
            <polygon id="Fill-57" fill="#0D8DFF" points="8.78060147 13.2571872 15.4461244 17.0610397 22.1116473 13.2571872 22.1116473 13.1784249 15.4461244 9.37457236 8.78060147 13.1784249"></polygon>
            <polygon id="Fill-58" fill="#0D5FFF" points="12.1133705 0 5.44784762 3.80385256 5.44784762 11.4116337 12.1133705 15.2154863 18.7788174 11.4116337 18.7788174 3.80385256"></polygon>
            <polygon id="Fill-59" fill="#002FA7" points="5.44780961 3.8432565 5.44780961 11.4116565 12.1133325 15.2155091 12.1133325 7.64710906"></polygon>
            <polygon id="Fill-60" fill="#0D8DFF" points="12.1133705 0 5.44784762 3.80385256 5.44784762 3.88261483 12.1133705 7.68654341 18.7788174 3.88261483 18.7788174 3.80385256"></polygon>
            <polygon id="Fill-61" fill="#0D5FFF" points="28.7771626 24.6267637 28.7771626 17.0190585 22.1116397 13.21513 15.4461168 17.0190585 15.4461168 24.6267637 22.1116397 28.4306162"></polygon>
            <polygon id="Fill-62" fill="#002FA7" points="15.4461092 17.0583789 15.4461092 24.6267789 22.1116321 28.4306314 22.1116321 20.8622314"></polygon>
            <polygon id="Fill-63" fill="#0D8DFF" points="15.4461092 17.0977296 22.1116321 20.9016582 28.777155 17.0977296 28.777155 17.0189673 22.1116321 13.2151148 15.4461092 17.0189673"></polygon>
        </g>
        <text id="OmniBuildPlatform" font-family="DINCond-BlackAlternate" font-size="28" font-weight="normal" line-spacing="28" fill="#FAF7EE">
            <tspan x="62" y="43">OmniBuildPlatform</tspan>
        </text>
    </g>
</svg>