<?xml version="1.0" encoding="UTF-8"?>
<svg width="240px" height="48px" viewBox="0 0 240 48" version="1.1" xmlns="http://www.w3.org/2000/svg" xmlns:xlink="http://www.w3.org/1999/xlink">
    <title>切片</title>
    <g id="Noelle-UI-Kit-(Dark)" stroke="none" stroke-width="1">
        <g id="01-主页" transform="translate(-60.000000, -16.000000)">
            <g id="OBP\logo" transform="translate(60.000000, 16.000000)">
                <g id="编组">
                    <polygon id="Fill-1" fill="#002FA7" points="32.0190385 38.741841 32.0190385 32.6712519 26.6825311 29.635927 21.3460237 32.6712519 21.3460237 38.741841 26.6825311 41.7771052"></polygon>
                    <polygon id="Fill-2" fill="#002FA7" points="21.3460176 32.702688 21.3460176 38.7418531 26.682525 41.7771173 26.682525 35.7379522"></polygon>
                    <polygon id="Fill-3" fill="#0D8DFF" points="21.3460176 32.7340877 26.682525 35.7693519 32.0190324 32.7340877 32.0190324 32.6712397 26.682525 29.6359755 21.3460176 32.6712397"></polygon>
                    <polygon id="Fill-4" fill="#0D5FFF" points="23.0393536 25.592378 23.0393536 19.5218496 17.7028462 16.4865247 12.3663387 19.5218496 12.3663387 25.592378 17.7028462 28.6277029"></polygon>
                    <polygon id="Fill-5" fill="#002FA7" points="12.3663631 19.553225 12.3663631 25.5923901 17.7028705 28.6276543 17.7028705 22.5885499"></polygon>
                    <polygon id="Fill-6" fill="#0D8DFF" points="12.3663631 19.5846793 17.7028705 22.6199435 23.039378 19.5846793 23.039378 19.5218314 17.7028705 16.4865671 12.3663631 19.5218314"></polygon>
                    <polygon id="Fill-7" fill="#0D5FFF" points="23.0393536 21.5871869 23.0393536 15.5166585 17.7028462 12.4813336 12.3663387 15.5166585 12.3663387 21.5871869 17.7028462 24.6224511"></polygon>
                    <polygon id="Fill-8" fill="#002FA7" points="12.3663631 15.54804 12.3663631 21.5872051 17.7028705 24.6224693 17.7028705 18.5833042"></polygon>
                    <polygon id="Fill-9" fill="#0D8DFF" points="12.3663631 15.5794943 17.7028705 18.6147585 23.039378 15.5794943 23.039378 15.5166463 17.7028705 12.4813821 12.3663631 15.5166463"></polygon>
                    <polygon id="Fill-10" fill="#0D5FFF" points="28.3758793 30.7244702 28.3758793 24.6539418 23.0393719 21.6185563 17.7028644 24.6539418 17.7028644 30.7244702 23.0393719 33.7597345"></polygon>
                    <polygon id="Fill-11" fill="#000000" points="17.7028584 24.6853172 17.7028584 30.7244824 23.0393658 33.7597466 23.0393658 27.7205815"></polygon>
                    <polygon id="Fill-12" fill="#0D8DFF" points="17.7028584 24.7167776 23.0393658 27.7520418 28.3758732 24.7167776 28.3758732 24.6539297 23.0393658 21.6186048 17.7028584 24.6539297"></polygon>
                    <polygon id="Fill-13" fill="#0D5FFF" points="23.0393597 27.6577396 23.0393597 33.7283287 28.3758671 36.7636536 33.7123746 33.7283287 33.7123746 27.6577396 28.3758671 24.6224147"></polygon>
                    <polygon id="Fill-14" fill="#000000" points="23.0393841 27.6891939 23.0393841 33.728359 28.3758915 36.7636232 28.3758915 30.7244581"></polygon>
                    <polygon id="Fill-15" fill="#0D8DFF" points="23.0393597 27.6577396 23.0393597 27.7205875 28.3758671 30.7559124 33.7123746 27.7205875 33.7123746 27.6577396 28.3758671 24.6224147"></polygon>
                    <polygon id="Fill-16" fill="#FFAB15" points="31.6025688 9.44602688 31.6025688 3.37549845 26.2660614 0.340173564 20.9295539 3.37549845 20.9295539 9.44602688 26.2660614 12.4813518"></polygon>
                    <polygon id="Fill-17" fill="#FF6C0A" points="20.9295783 3.40687995 20.9295783 9.44604508 26.2660857 12.4813093 26.2660857 6.44214417"></polygon>
                    <polygon id="Fill-18" fill="#FFE151" points="20.9295783 3.43833425 26.2660857 6.47359847 31.6025931 3.43833425 31.6025931 3.37548631 26.2660857 0.340222095 20.9295783 3.37548631"></polygon>
                    <polygon id="Fill-19" fill="#0D5FFF" points="0 32.7087301 0 38.7793192 5.33650744 41.8146441 10.6730149 38.7793192 10.6730149 32.7087301 5.33650744 29.6734052"></polygon>
                    <polygon id="Fill-20" fill="#000000" points="0 38.7793313 5.33650744 41.8146562 5.33650744 35.7754911 0 32.7401662"></polygon>
                    <polygon id="Fill-21" fill="#0D8DFF" points="0 32.7087301 0 32.771578 5.33650744 35.8068423 10.6730149 32.771578 10.6730149 32.7087301 5.33650744 29.6734052"></polygon>
                    <polygon id="Fill-22" fill="#0D5FFF" points="0 26.7510368 0 32.8216259 5.33650744 35.8569507 10.6730149 32.8216259 10.6730149 26.7510368 5.33650744 23.7157119"></polygon>
                    <polygon id="Fill-23" fill="#000000" points="0 32.821638 5.33650744 35.8569629 5.33650744 29.8177977 0 26.7824729"></polygon>
                    <polygon id="Fill-24" fill="#0D8DFF" points="0 26.7510368 0 26.8138847 5.33650744 29.8492096 10.6730149 26.8138847 10.6730149 26.7510368 5.33650744 23.7157119"></polygon>
                    <polygon id="Fill-25" fill="#0D5FFF" points="16.0095223 41.8063816 16.0095223 35.7358532 10.6730149 32.7005283 5.33650744 35.7358532 5.33650744 41.8063816 10.6730149 44.8417065"></polygon>
                    <polygon id="Fill-26" fill="#000000" points="5.33650135 35.7672286 5.33650135 41.8063938 10.6730088 44.841658 10.6730088 38.8025535"></polygon>
                    <polygon id="Fill-27" fill="#0D8DFF" points="5.33650135 35.798689 10.6730088 38.8339532 16.0095162 35.798689 16.0095162 35.7358411 10.6730088 32.7005768 5.33650135 35.7358411"></polygon>
                    <polygon id="Fill-28" fill="#002FA7" points="26.6825128 41.8085716 26.6825128 35.7379825 21.3460054 32.7026576 16.009498 35.7379825 16.009498 41.8085716 21.3460054 44.8438358"></polygon>
                    <polygon id="Fill-29" fill="#002FA7" points="16.0095223 35.7694186 16.0095223 41.8085231 21.3460297 44.843848 21.3460297 38.8046828"></polygon>
                    <polygon id="Fill-30" fill="#0D8DFF" points="16.0095223 35.8008183 21.3460297 38.8360825 26.6825372 35.8008183 26.6825372 35.7379704 21.3460297 32.7027062 16.0095223 35.7379704"></polygon>
                    <polygon id="Fill-31" fill="#002FA7" points="10.6730514 38.7708141 10.6730514 44.8413425 16.009498 47.8766674 21.3460054 44.8413425 21.3460054 38.7708141 16.009498 35.7354892"></polygon>
                    <polygon id="Fill-32" fill="#000000" points="10.6730514 44.8413607 16.009498 47.8766856 16.009498 41.8375205 10.6730514 38.8021956"></polygon>
                    <polygon id="Fill-33" fill="#0D8DFF" points="10.673027 38.8336681 16.0095345 41.8689323 21.3460419 38.8336681 21.3460419 38.7708202 16.0095345 35.7355559 10.673027 38.7708202"></polygon>
                    <polygon id="Fill-34" fill="#0D5FFF" points="16.0095223 26.7510368 16.0095223 20.6805083 10.6730149 17.6451834 5.33650744 20.6805083 5.33650744 26.7510368 10.6730149 29.7863616"></polygon>
                    <polygon id="Fill-35" fill="#000000" points="5.33650135 20.7118838 5.33650135 26.7510489 10.6730088 29.7863131 10.6730088 23.7472086"></polygon>
                    <polygon id="Fill-36" fill="#0D8DFF" points="5.33650135 20.7433441 10.6730088 23.7786083 16.0095162 20.7433441 16.0095162 20.6804962 10.6730088 17.645232 5.33650135 20.6804962"></polygon>
                    <polygon id="Fill-37" fill="#0D5FFF" points="0 26.6381835 0 32.7087119 5.33650744 35.7440974 10.6730149 32.7087119 10.6730149 26.6381835 5.33650744 23.6028586"></polygon>
                    <polygon id="Fill-38" fill="#000000" points="0 32.7087301 5.33650744 35.744055 5.33650744 29.7049505 0 26.669565"></polygon>
                    <polygon id="Fill-39" fill="#0D8DFF" points="0 26.6381835 0 26.7010314 5.33650744 29.7363563 10.6730149 26.7010314 10.6730149 26.6381835 5.33650744 23.6028586"></polygon>
                    <polygon id="Fill-40" fill="#0D5FFF" points="23.0393597 17.5262759 23.0393597 23.596865 28.3758671 26.6321292 33.7123746 23.596865 33.7123746 17.5262759 28.3758671 14.490951"></polygon>
                    <polygon id="Fill-41" fill="#002FA7" points="23.0393841 17.557712 23.0393841 23.5968164 28.3758915 26.6321413 28.3758915 20.5929762"></polygon>
                    <polygon id="Fill-42" fill="#0D8DFF" points="23.0393597 17.5262759 23.0393597 17.5891238 28.3758671 20.624388 33.7123746 17.5891238 33.7123746 17.5262759 28.3758671 14.490951"></polygon>
                    <polygon id="Fill-43" fill="#0D5FFF" points="28.3758793 26.600681 28.3758793 20.5301525 23.0393719 17.4948276 17.7028644 20.5301525 17.7028644 26.600681 23.0393719 29.6360058"></polygon>
                    <polygon id="Fill-44" fill="#002FA7" points="17.7028584 20.561528 17.7028584 26.6006931 23.0393658 29.6359573 23.0393658 23.5968528"></polygon>
                    <polygon id="Fill-45" fill="#0D8DFF" points="17.7028584 20.5929823 23.0393658 23.6282465 28.3758732 20.5929823 28.3758732 20.5301343 23.0393658 17.4948701 17.7028584 20.5301343"></polygon>
                    <polygon id="Fill-46" fill="#0D5FFF" points="23.0393841 29.6045576 23.0393841 23.5340292 17.7028766 20.4986436 12.3663692 23.5340292 12.3663692 29.6045576 17.7028766 32.6398218"></polygon>
                    <polygon id="Fill-47" fill="#002FA7" points="12.3663631 23.5654046 12.3663631 29.6045697 17.7028705 32.639834 17.7028705 26.6006688"></polygon>
                    <polygon id="Fill-48" fill="#0D8DFF" points="12.3663631 23.5968589 17.7028705 26.6321231 23.039378 23.5968589 23.039378 23.534011 17.7028705 20.4986861 12.3663631 23.534011"></polygon>
                    <polygon id="Fill-49" fill="#0D5FFF" points="23.0393841 25.0673733 23.0393841 18.9967842 17.7028766 15.9615199 12.3663692 18.9967842 12.3663692 25.0673733 17.7028766 28.1026375"></polygon>
                    <polygon id="Fill-50" fill="#002FA7" points="12.3663631 19.0282203 12.3663631 25.0673247 17.7028705 28.1026496 17.7028705 22.0634845"></polygon>
                    <polygon id="Fill-51" fill="#0D8DFF" points="12.3663631 19.05962 17.7028705 22.0948842 23.039378 19.05962 23.039378 18.996772 17.7028705 15.9615078 12.3663631 18.996772"></polygon>
                    <polygon id="Fill-52" fill="#0D5FFF" points="15.0346107 15.1135581 15.0346107 9.04302965 9.69810329 6.00770477 4.36159585 9.04302965 4.36159585 15.1135581 9.69810329 18.1488223"></polygon>
                    <polygon id="Fill-53" fill="#002FA7" points="4.36158976 9.07440509 4.36158976 15.1135702 9.6980972 18.1488344 9.6980972 12.1096693"></polygon>
                    <polygon id="Fill-54" fill="#0D8DFF" points="4.36158976 9.10585939 9.6980972 12.1411236 15.0346046 9.10585939 15.0346046 9.04301145 9.6980972 6.00774723 4.36158976 9.04301145"></polygon>
                    <polygon id="Fill-55" fill="#0D5FFF" points="17.7028584 16.5862563 17.7028584 10.5156672 12.3663509 7.48034236 7.02984348 10.5156672 7.02984348 16.5862563 12.3663509 19.6215206"></polygon>
                    <polygon id="Fill-56" fill="#002FA7" points="7.02986783 10.5471033 7.02986783 16.5862078 12.3663753 19.6215327 12.3663753 13.5823676"></polygon>
                    <polygon id="Fill-57" fill="#0D8DFF" points="7.02986783 10.578503 12.3663753 13.6137673 17.7028827 10.578503 17.7028827 10.5156551 12.3663753 7.48039089 7.02986783 10.5156551"></polygon>
                    <polygon id="Fill-58" fill="#0D5FFF" points="9.69812764 0 4.3616202 3.03526422 4.3616202 9.10585332 9.69812764 12.1411175 15.0345742 9.10585332 15.0345742 3.03526422"></polygon>
                    <polygon id="Fill-59" fill="#002FA7" points="4.36158976 3.06670639 4.36158976 9.10587152 9.6980972 12.1411357 9.6980972 6.10197061"></polygon>
                    <polygon id="Fill-60" fill="#0D8DFF" points="9.69812764 0 4.3616202 3.03526422 4.3616202 3.09811216 9.69812764 6.13343704 15.0345742 3.09811216 15.0345742 3.03526422"></polygon>
                    <polygon id="Fill-61" fill="#0D5FFF" points="23.0393841 19.650797 23.0393841 13.5802686 17.7028766 10.5449437 12.3663692 13.5802686 12.3663692 19.650797 17.7028766 22.6860612"></polygon>
                    <polygon id="Fill-62" fill="#002FA7" points="12.3663631 13.611644 12.3663631 19.6508092 17.7028705 22.6860734 17.7028705 16.6469082"></polygon>
                    <polygon id="Fill-63" fill="#0D8DFF" points="12.3663631 13.6430437 17.7028705 16.6783686 23.039378 13.6430437 23.039378 13.5801958 17.7028705 10.5449316 12.3663631 13.5801958"></polygon>
                </g>
                <g id="OmniBuildPlatform-2" transform="translate(46.277592, 11.200000)" fill-rule="nonzero" font-family="Roboto-Bold, Roboto" font-size="22.4749164" font-weight="bold" line-spacing="22.4749164">
                    <text id="OmniBuildPlatform">
                        <tspan x="0" y="21">OmniBuildPlatform</tspan>
                    </text>
                </g>
            </g>
        </g>
    </g>
</svg>