<?xml version="1.0" encoding="UTF-8"?>
<svg width="16px" height="16px" viewBox="0 0 16 16" version="1.1" xmlns="http://www.w3.org/2000/svg" xmlns:xlink="http://www.w3.org/1999/xlink">
    <title>切片</title>
    <g id="Noelle-UI-Kit-(Dark)" stroke="none" stroke-width="1">
        <g id="04-Job-List" transform="translate(-1716.000000, -212.000000)">
            <g id="编组" transform="translate(1716.000000, 209.000000)">
                <g id="ico-/-24-/-actions-/-remove_circle_outlined" transform="translate(0.000000, 3.000000)">
                    <path d="M8,1.33333333 C4.31810167,1.33333333 1.33333333,4.31810167 1.33333333,8 C1.33333333,11.6818983 4.31810167,14.6666667 8,14.6666667 C11.6818983,14.6666667 14.6666667,11.6818983 14.6666667,8 C14.6666667,6.23189007 13.9642877,4.53619732 12.7140452,3.28595479 C11.4638027,2.03571227 9.76810993,1.33333333 8,1.33333333 Z M8,13.3333333 C5.05448133,13.3333333 2.66666667,10.9455187 2.66666667,8 C2.66666667,5.05448133 5.05448133,2.66666667 8,2.66666667 C10.9455187,2.66666667 13.3333333,5.05448133 13.3333333,8 C13.3333333,9.41448795 12.7714302,10.7710421 11.7712362,11.7712362 C10.7710421,12.7714302 9.41448795,13.3333333 8,13.3333333 Z M10.3333333,7.33333333 L5.66666667,7.33333333 C5.48257175,7.33333333 5.33333333,7.48257175 5.33333333,7.66666667 L5.33333333,8.33333333 C5.33333333,8.51742825 5.48257175,8.66666667 5.66666667,8.66666667 L10.3333333,8.66666667 C10.5174282,8.66666667 10.6666667,8.51742825 10.6666667,8.33333333 L10.6666667,7.66666667 C10.6666667,7.48257175 10.5174282,7.33333333 10.3333333,7.33333333 Z" id="Icon-color"></path>
                </g>
            </g>
        </g>
    </g>
</svg>