<?xml version="1.0" encoding="UTF-8"?>
<svg width="24px" height="24px" viewBox="0 0 24 24" version="1.1" xmlns="http://www.w3.org/2000/svg" xmlns:xlink="http://www.w3.org/1999/xlink">
    <title>切片</title>
    <g id="Noelle-UI-Kit-(Dark)" stroke="none" stroke-width="1" fill="none" fill-rule="evenodd">
        <g id="02-概览" transform="translate(-312.000000, -848.000000)" fill="#FF7D00" fill-rule="nonzero">
            <g id="编组-22" transform="translate(276.000000, 569.000000)">
                <g id="Group-27" transform="translate(0.000000, 48.000000)">
                    <g id="Group-21" transform="translate(0.000000, 13.000000)">
                        <g id="编组-10" transform="translate(24.000000, 0.000000)">
                            <g id="ico-/-24-/-actions-/-clear_circle_outlined备份" transform="translate(12.000000, 218.000000)">
                                <path d="M12,2 C6.4771525,2 2,6.4771525 2,12 C2,17.5228475 6.4771525,22 12,22 C17.5228475,22 22,17.5228475 22,12 C22,9.3478351 20.9464316,6.80429597 19.0710678,4.92893219 C17.195704,3.0535684 14.6521649,2 12,2 Z M20.0000061,11.9999939 C20.0022094,13.776655 19.4069846,15.5024547 18.31,16.9 L7.1,5.69 C8.49754526,4.59301541 10.223345,3.99779061 12,3.99999387 C14.1217319,3.99999387 16.1565632,4.84285472 17.6568542,6.34314575 C19.1571453,7.84343678 20.0000061,9.87826808 20.0000061,11.9999939 Z M3.99999387,12 C3.99779061,10.223345 4.59301541,8.49754526 5.69,7.1 L16.9,18.31 C15.5024547,19.4069846 13.776655,20.0022094 11.9999939,20.0000061 C9.87826808,20.0000061 7.84343678,19.1571453 6.34314575,17.6568542 C4.84285472,16.1565632 3.99999387,14.1217319 3.99999387,12 Z" id="Icon-color"></path>
                            </g>
                        </g>
                    </g>
                </g>
            </g>
        </g>
    </g>
</svg>