<?xml version="1.0" encoding="UTF-8"?>
<svg width="24px" height="24px" viewBox="0 0 24 24" version="1.1" xmlns="http://www.w3.org/2000/svg" xmlns:xlink="http://www.w3.org/1999/xlink">
    <title>切片</title>
    <g id="Noelle-UI-Kit-(Dark)" stroke="none" stroke-width="1" fill="none" fill-rule="evenodd">
        <g id="02-概览" transform="translate(-312.000000, -681.000000)" fill="#6DC335" fill-rule="nonzero">
            <g id="编组-22" transform="translate(276.000000, 569.000000)">
                <g id="Group-27" transform="translate(0.000000, 48.000000)">
                    <g id="Group-21" transform="translate(0.000000, 13.000000)">
                        <g id="编组-10" transform="translate(24.000000, 0.000000)">
                            <g id="ico-/-24-/-actions-/-checkmark_circle_outlined" transform="translate(12.000000, 51.000000)">
                                <path d="M12,2 C6.4771525,2 2,6.4771525 2,12 C2,17.5228475 6.4771525,22 12,22 C17.5228475,22 22,17.5228475 22,12 C22,9.3478351 20.9464316,6.80429597 19.0710678,4.92893219 C17.195704,3.0535684 14.6521649,2 12,2 Z M12,20 C7.581722,20 4,16.418278 4,12 C4,7.581722 7.581722,4 12,4 C16.418278,4 20,7.581722 20,12 C20,14.1217319 19.1571453,16.1565632 17.6568542,17.6568542 C16.1565632,19.1571453 14.1217319,20 12,20 Z M15.82,8.49 C15.6255782,8.29942856 15.3144218,8.29942856 15.12,8.49 L10.38,13.23 L8.88,11.74 C8.78926667,11.6433228 8.66258591,11.5884814 8.53,11.5884814 C8.39741409,11.5884814 8.27073333,11.6433228 8.18,11.74 L7.65,12.27 C7.55534367,12.3638833 7.50210084,12.4916812 7.50210084,12.625 C7.50210084,12.7583188 7.55534367,12.8861167 7.65,12.98 L10,15.35 C10.0907333,15.4466772 10.2174141,15.5015186 10.35,15.5015186 C10.4825859,15.5015186 10.6092667,15.4466772 10.7,15.35 L16.32,9.73 C16.4146563,9.6361167 16.4678992,9.50831877 16.4678992,9.375 C16.4678992,9.24168123 16.4146563,9.1138833 16.32,9.02 L15.82,8.49 Z" id="Icon-color"></path>
                            </g>
                        </g>
                    </g>
                </g>
            </g>
        </g>
    </g>
</svg>