<?xml version="1.0" encoding="UTF-8"?>
<svg width="24px" height="24px" viewBox="0 0 24 24" version="1.1" xmlns="http://www.w3.org/2000/svg" xmlns:xlink="http://www.w3.org/1999/xlink">
    <title>切片</title>
    <g id="Noelle-UI-Kit-(Dark)" stroke="none" stroke-width="1" fill="none" fill-rule="evenodd">
        <g id="03-Build-Image_error" transform="translate(-660.000000, -555.000000)" fill="#FEB32A" fill-rule="nonzero">
            <g id="ico-/-24-/-actions-/-update" transform="translate(660.000000, 555.000000)">
                <path d="M18,7 L18,4 L18.5,4 C18.7761424,4 19,3.77614237 19,3.5 L19,2.5 C19,2.22385763 18.7761424,2 18.5,2 L5.5,2 C5.22385763,2 5,2.22385763 5,2.5 L5,3.5 C5,3.77614237 5.22385763,4 5.5,4 L6,4 L6,7 C5.98952127,7.92513577 6.40649061,8.80335439 7.13,9.38 L10.4,12 L7.13,14.62 C6.40649061,15.1966456 5.98952127,16.0748642 6,17 L6,20 L5.5,20 C5.22385763,20 5,20.2238576 5,20.5 L5,21.5 C5,21.7761424 5.22385763,22 5.5,22 L18.5,22 C18.7761424,22 19,21.7761424 19,21.5 L19,20.5 C19,20.2238576 18.7761424,20 18.5,20 L18,20 L18,17 C17.9982162,16.0888743 17.5824632,15.2279344 16.87,14.66 L13.6,12 L16.87,9.38 C17.5935094,8.80335439 18.0104787,7.92513577 18,7 Z M15.62,16.14 C15.8819354,16.3455317 16.0243987,16.6679486 16,17 L16,20 L8,20 L8,17 C8.00140277,16.695728 8.14126257,16.4086474 8.38,16.22 L12,13.28 L15.62,16.14 Z M15.62,7.78 L12,10.72 L8.38,7.82 C8.12999787,7.62276121 7.98888111,7.31824609 8,7 L8,4 L16,4 L16,7 C16.0111189,7.31824609 15.8700021,7.62276121 15.62,7.82 L15.62,7.78 Z" id="Icon-color"></path>
            </g>
        </g>
    </g>
</svg>