<?xml version="1.0" encoding="UTF-8"?>
<svg width="24px" height="24px" viewBox="0 0 24 24" version="1.1" xmlns="http://www.w3.org/2000/svg" xmlns:xlink="http://www.w3.org/1999/xlink">
    <title>切片</title>
    <g id="Noelle-UI-Kit-(Dark)" stroke="none" stroke-width="1" fill="none" fill-rule="evenodd">
        <g id="02-概览" transform="translate(-312.000000, -737.000000)" fill="#F3524D" fill-rule="nonzero">
            <g id="编组-22" transform="translate(276.000000, 569.000000)">
                <g id="Group-27" transform="translate(0.000000, 48.000000)">
                    <g id="Group-21" transform="translate(0.000000, 13.000000)">
                        <g id="编组-10" transform="translate(24.000000, 0.000000)">
                            <g id="ico-/-24-/-actions-/-clear_circle_outlined" transform="translate(12.000000, 107.000000)">
                                <path d="M12,2 C6.4771525,2 2,6.4771525 2,12 C2,17.5228475 6.4771525,22 12,22 C17.5228475,22 22,17.5228475 22,12 C22,9.3478351 20.9464316,6.80429597 19.0710678,4.92893219 C17.195704,3.0535684 14.6521649,2 12,2 Z M12,20 C7.581722,20 4,16.418278 4,12 C4,7.581722 7.581722,4 12,4 C16.418278,4 20,7.581722 20,12 C20,14.1217319 19.1571453,16.1565632 17.6568542,17.6568542 C16.1565632,19.1571453 14.1217319,20 12,20 Z M15.09,9.44 L14.56,8.91 C14.4692667,8.81332277 14.3425859,8.75848135 14.21,8.75848135 C14.0774141,8.75848135 13.9507333,8.81332277 13.86,8.91 L12,10.76 L10.14,8.91 C10.0492667,8.81332277 9.92258591,8.75848135 9.79,8.75848135 C9.65741409,8.75848135 9.53073333,8.81332277 9.44,8.91 L8.91,9.44 C8.81332277,9.53073333 8.75848135,9.65741409 8.75848135,9.79 C8.75848135,9.92258591 8.81332277,10.0492667 8.91,10.14 L10.76,12 L8.91,13.86 C8.81332277,13.9507333 8.75848135,14.0774141 8.75848135,14.21 C8.75848135,14.3425859 8.81332277,14.4692667 8.91,14.56 L9.44,15.09 C9.53073333,15.1866772 9.65741409,15.2415186 9.79,15.2415186 C9.92258591,15.2415186 10.0492667,15.1866772 10.14,15.09 L12,13.24 L13.86,15.09 C13.9507333,15.1866772 14.0774141,15.2415186 14.21,15.2415186 C14.3425859,15.2415186 14.4692667,15.1866772 14.56,15.09 L15.09,14.56 C15.1866772,14.4692667 15.2415186,14.3425859 15.2415186,14.21 C15.2415186,14.0774141 15.1866772,13.9507333 15.09,13.86 L13.24,12 L15.09,10.14 C15.1866772,10.0492667 15.2415186,9.92258591 15.2415186,9.79 C15.2415186,9.65741409 15.1866772,9.53073333 15.09,9.44 L15.09,9.44 Z" id="Icon-color"></path>
                            </g>
                        </g>
                    </g>
                </g>
            </g>
        </g>
    </g>
</svg>