<?xml version="1.0" encoding="UTF-8"?>
<svg width="24px" height="24px" viewBox="0 0 24 24" version="1.1" xmlns="http://www.w3.org/2000/svg" xmlns:xlink="http://www.w3.org/1999/xlink">
    <title>切片</title>
    <g id="Noelle-UI-Kit-(Dark)" stroke="none" stroke-width="1" fill="none" fill-rule="evenodd">
        <g id="03-Build-Image_error" transform="translate(-660.000000, -603.000000)" fill="#a0cfff" fill-rule="nonzero">
            <g id="ico-/-24-/-actions-/-refresh" transform="translate(660.000000, 603.000000)">
                <path d="M20.5,10 L15.5,10 C15.2238576,10 15,9.77614237 15,9.5 L15,9.21 C14.9980339,9.07441418 15.0523416,8.94407559 15.15,8.85 L16.93,7.07 C15.6297405,5.74828705 13.8540745,5.00272344 12,5 C8.19715276,5.00858228 5.09677708,8.05170712 5.01732551,11.853734 C4.93787395,15.6557608 7.90841317,18.8257506 11.707582,18.9931934 C15.5067508,19.1606362 18.7446556,16.2642746 19,12.47 C19.0158899,12.2056381 19.2351614,11.9995229 19.5,12 L20.5,12 C20.6363403,12.0040536 20.7656291,12.0615153 20.86,12.16 C20.9519115,12.2604839 20.998861,12.3941096 20.99,12.53 C20.7416363,16.7670069 17.5669074,20.2546351 13.3718284,20.8990139 C9.1767493,21.5433927 5.1016494,19.1693636 3.59310019,15.2022246 C2.08455097,11.2350856 3.55261455,6.75320625 7.11590821,4.44737656 C10.6792019,2.14154687 15.3691316,2.63855012 18.37,5.64 L19.86,4.15 C19.9516731,4.05485892 20.0778819,4.00076942 20.21,4 L20.5,4 C20.7761424,4 21,4.22385763 21,4.5 L21,9.5 C21,9.77614237 20.7761424,10 20.5,10 Z" id="Icon-color"></path>
            </g>
        </g>
    </g>
</svg>